<svg width="300" height="54" viewBox="0 0 300 54" fill="none" xmlns="http://www.w3.org/2000/svg">
<rect width="300" height="54" rx="10" fill="black"/>
<path d="M98.1055 34H95.3906L100.371 19.8594H103.496L108.496 34H105.781L104.609 30.5039H99.2773L98.1055 34ZM99.9609 28.4531H103.926L101.992 22.75H101.875L99.9609 28.4531ZM110.059 37.9844V23.3945H112.5V25.1328H112.656C113.047 24.3711 113.828 23.2578 115.703 23.2578C118.145 23.2578 120.078 25.1719 120.078 28.707C120.078 32.2031 118.203 34.1953 115.703 34.1953C113.867 34.1953 113.047 33.1016 112.656 32.3203H112.559V37.9844H110.059ZM112.5 28.6875C112.5 30.7578 113.398 32.1445 115.02 32.1445C116.66 32.1445 117.539 30.6992 117.539 28.6875C117.539 26.7148 116.68 25.2891 115.02 25.2891C113.398 25.2891 112.5 26.6367 112.5 28.6875ZM122.031 37.9844V23.3945H124.473V25.1328H124.629C125.02 24.3711 125.801 23.2578 127.676 23.2578C130.117 23.2578 132.051 25.1719 132.051 28.707C132.051 32.2031 130.176 34.1953 127.676 34.1953C125.84 34.1953 125.02 33.1016 124.629 32.3203H124.531V37.9844H122.031ZM124.473 28.6875C124.473 30.7578 125.371 32.1445 126.992 32.1445C128.633 32.1445 129.512 30.6992 129.512 28.6875C129.512 26.7148 128.652 25.2891 126.992 25.2891C125.371 25.2891 124.473 26.6367 124.473 28.6875ZM136.504 19.8594V34H134.004V19.8594H136.504ZM143.594 34.2148C140.391 34.2148 138.438 32.0859 138.438 28.7656C138.438 25.4844 140.43 23.2578 143.457 23.2578C146.055 23.2578 148.301 24.8789 148.301 28.6094V29.3906H140.898C140.928 31.1973 141.992 32.2617 143.613 32.2617C144.707 32.2617 145.449 31.793 145.762 31.168H148.203C147.754 33.0039 146.055 34.2148 143.594 34.2148ZM140.918 27.6914H145.918C145.898 26.2461 144.941 25.1914 143.496 25.1914C141.992 25.1914 140.996 26.334 140.918 27.6914ZM165.762 31.8906V33.6875H149.629V31.8906H156.582V29.0195H151.543V23.2383H161.699V21.0508H151.504V19.293H163.848V24.957H153.711V27.2422H164.258V29.0195H158.73V31.8906H165.762ZM187.793 31.8906V33.6875H171.66V31.8906H178.613V29.0195H173.574V23.2383H183.73V21.0508H173.535V19.293H185.879V24.957H175.742V27.2422H186.289V29.0195H180.762V31.8906H187.793ZM202.988 19.8008V21.793C202.988 24.1562 202.988 26.5977 202.344 30.3086L200.137 30.1133C200.82 26.6367 200.82 24.0781 200.82 21.793V21.5586H190.645V19.8008H202.988ZM205.039 31.5391V33.3164H188.945V31.5391H205.039ZM220.938 18.1016V30.8555H218.75V18.1016H220.938ZM221.426 33.6289V35.3867H209.258V29.5664H211.445V33.6289H221.426ZM211.309 19.2539C213.984 19.2539 216.055 21.1094 216.055 23.668C216.055 26.2852 213.984 28.1016 211.309 28.1016C208.613 28.1016 206.543 26.2852 206.543 23.668C206.543 21.1094 208.613 19.2539 211.309 19.2539ZM211.309 21.1484C209.805 21.1484 208.652 22.1445 208.672 23.668C208.652 25.2305 209.805 26.207 211.309 26.207C212.773 26.207 213.926 25.2305 213.926 23.668C213.926 22.1445 212.773 21.1484 211.309 21.1484Z" fill="white"/>
<path d="M32.1133 21.7788C32.2923 21.7788 32.5975 21.8073 33.0288 21.8643C33.4601 21.9212 33.9321 22.084 34.4448 22.3525C34.9657 22.613 35.4377 23.0483 35.8608 23.6587C35.8364 23.6831 35.7184 23.7726 35.5068 23.9272C35.2952 24.0737 35.0592 24.2935 34.7988 24.5864C34.5384 24.8713 34.3105 25.2375 34.1152 25.6851C33.9199 26.1245 33.8223 26.6494 33.8223 27.2598C33.8223 27.9596 33.9443 28.5537 34.1885 29.042C34.4408 29.5303 34.7297 29.925 35.0552 30.2261C35.3888 30.519 35.6818 30.7347 35.9341 30.873C36.1945 31.0114 36.3328 31.0846 36.3491 31.0928C36.341 31.1253 36.2352 31.4142 36.0317 31.9595C35.8364 32.5047 35.5109 33.111 35.0552 33.7783C34.6564 34.3561 34.2251 34.8892 33.7612 35.3774C33.3055 35.8657 32.7562 36.1099 32.1133 36.1099C31.682 36.1099 31.328 36.0488 31.0513 35.9268C30.7746 35.7965 30.4897 35.6704 30.1968 35.5483C29.9038 35.4181 29.5091 35.353 29.0127 35.353C28.5326 35.353 28.1297 35.4181 27.8042 35.5483C27.4868 35.6785 27.1816 35.8088 26.8887 35.939C26.6038 36.0692 26.2661 36.1343 25.8755 36.1343C25.2814 36.1343 24.7606 35.8983 24.313 35.4263C23.8654 34.9543 23.4056 34.3887 22.9336 33.7295C22.3883 32.9482 21.9204 31.9961 21.5298 30.873C21.1473 29.7419 20.9561 28.6025 20.9561 27.4551C20.9561 26.2262 21.188 25.1968 21.6519 24.3667C22.1157 23.5285 22.7098 22.8978 23.4341 22.4746C24.1665 22.0433 24.9233 21.8276 25.7046 21.8276C26.1196 21.8276 26.5103 21.8968 26.8765 22.0352C27.2427 22.1654 27.5845 22.2996 27.9019 22.438C28.2274 22.5763 28.5203 22.6455 28.7808 22.6455C29.033 22.6455 29.326 22.5723 29.6597 22.4258C29.9933 22.2793 30.3677 22.1369 30.7827 21.9985C31.1978 21.8521 31.6413 21.7788 32.1133 21.7788ZM31.4419 20.2285C31.1245 20.611 30.7257 20.9325 30.2456 21.1929C29.7655 21.4451 29.3097 21.5713 28.8784 21.5713C28.7889 21.5713 28.7035 21.5632 28.6221 21.5469C28.6139 21.5225 28.6058 21.4777 28.5977 21.4126C28.5895 21.3475 28.5854 21.2783 28.5854 21.2051C28.5854 20.7168 28.6912 20.2448 28.9028 19.7891C29.1144 19.3252 29.3545 18.9427 29.623 18.6416C29.9648 18.2347 30.3962 17.897 30.917 17.6284C31.4378 17.3599 31.9342 17.2174 32.4062 17.2012C32.4307 17.307 32.4429 17.4331 32.4429 17.5796C32.4429 18.0679 32.3493 18.5439 32.1621 19.0078C31.9749 19.4635 31.7349 19.8704 31.4419 20.2285Z" fill="white"/>
</svg>
