<svg width="300" height="50" viewBox="0 0 300 50" fill="none" xmlns="http://www.w3.org/2000/svg">
<rect x="0.5" y="0.5" width="299" height="49" rx="9.5" fill="white"/>
<rect x="0.5" y="0.5" width="299" height="49" rx="9.5" stroke="#747775"/>
<rect width="24" height="24" transform="translate(16 13)" fill="white"/>
<path fill-rule="evenodd" clip-rule="evenodd" d="M37.6 25.2271C37.6 24.518 37.5364 23.8362 37.4182 23.1816H28V27.0498H33.3818C33.15 28.2998 32.4455 29.3589 31.3864 30.068V32.5771H34.6182C36.5091 30.8362 37.6 28.2725 37.6 25.2271Z" fill="#4285F4"/>
<path fill-rule="evenodd" clip-rule="evenodd" d="M27.9989 34.9994C30.6989 34.9994 32.9625 34.104 34.617 32.5767L31.3852 30.0676C30.4898 30.6676 29.3443 31.0221 27.9989 31.0221C25.3943 31.0221 23.1898 29.2631 22.4034 26.8994H19.0625V29.4903C20.708 32.7585 24.0898 34.9994 27.9989 34.9994Z" fill="#34A853"/>
<path fill-rule="evenodd" clip-rule="evenodd" d="M22.4045 26.9007C22.2045 26.3007 22.0909 25.6598 22.0909 25.0007C22.0909 24.3416 22.2045 23.7007 22.4045 23.1007V20.5098H19.0636C18.3864 21.8598 18 23.387 18 25.0007C18 26.6143 18.3864 28.1416 19.0636 29.4916L22.4045 26.9007Z" fill="#FBBC05"/>
<path fill-rule="evenodd" clip-rule="evenodd" d="M27.9989 18.9773C29.467 18.9773 30.7852 19.4818 31.8216 20.4727L34.6898 17.6045C32.958 15.9909 30.6943 15 27.9989 15C24.0898 15 20.708 17.2409 19.0625 20.5091L22.4034 23.1C23.1898 20.7364 25.3943 18.9773 27.9989 18.9773Z" fill="#EA4335"/>
<path d="M100.996 22.332C100.469 20.6523 99.1992 19.6367 97.3242 19.6367C94.9414 19.6367 93.1055 21.5117 93.1055 24.9297C93.1055 28.3477 94.9219 30.2227 97.4219 30.2227C99.6777 30.2227 101.172 28.7969 101.211 26.5312H97.7344V24.7539H103.301V26.3555C103.301 29.9297 100.84 32.1953 97.4023 32.1953C93.5742 32.1953 90.9766 29.4023 90.9766 24.9297C90.9766 20.418 93.6523 17.6641 97.3047 17.6641C100.371 17.6641 102.715 19.5781 103.203 22.332H100.996ZM110.098 32.2148C107.09 32.2148 105.137 30.0273 105.137 26.7461C105.137 23.4453 107.09 21.2578 110.098 21.2578C113.086 21.2578 115.039 23.4453 115.039 26.7461C115.039 30.0273 113.086 32.2148 110.098 32.2148ZM110.098 30.4766C112.012 30.4766 112.93 28.7773 112.93 26.7461C112.93 24.7148 112.012 22.9766 110.098 22.9766C108.145 22.9766 107.227 24.7148 107.227 26.7461C107.227 28.7773 108.145 30.4766 110.098 30.4766ZM121.582 32.2148C118.574 32.2148 116.621 30.0273 116.621 26.7461C116.621 23.4453 118.574 21.2578 121.582 21.2578C124.57 21.2578 126.523 23.4453 126.523 26.7461C126.523 30.0273 124.57 32.2148 121.582 32.2148ZM121.582 30.4766C123.496 30.4766 124.414 28.7773 124.414 26.7461C124.414 24.7148 123.496 22.9766 121.582 22.9766C119.629 22.9766 118.711 24.7148 118.711 26.7461C118.711 28.7773 119.629 30.4766 121.582 30.4766ZM133.027 36.1992C130.352 36.1992 128.594 35.0078 128.398 33.0352H130.527C130.723 34.0312 131.66 34.5195 133.047 34.5195C134.707 34.5195 135.762 33.8164 135.762 32.1562V30.0664H135.625C135.254 30.75 134.492 31.8438 132.539 31.8438C130.039 31.8438 128.105 29.9688 128.105 26.5898C128.105 23.2109 130 21.2578 132.559 21.2578C134.531 21.2578 135.254 22.4492 135.645 23.1133H135.781V21.3945H137.812V32.2344C137.812 34.9492 135.762 36.1992 133.027 36.1992ZM133.008 30.125C134.785 30.125 135.781 28.8164 135.781 26.6289C135.781 24.4805 134.805 23.0352 133.008 23.0352C131.152 23.0352 130.234 24.5977 130.234 26.6289C130.234 28.6992 131.191 30.125 133.008 30.125ZM142.441 17.8594V32H140.352V17.8594H142.441ZM149.551 32.2148C146.426 32.2148 144.512 30.0664 144.512 26.7656C144.512 23.5039 146.465 21.2578 149.414 21.2578C151.836 21.2578 154.121 22.7617 154.121 26.5898V27.332H146.582C146.641 29.3438 147.822 30.4961 149.57 30.4961C150.762 30.4961 151.523 29.9883 151.875 29.3438H153.984C153.516 31.0625 151.875 32.2148 149.551 32.2148ZM146.602 25.7695H152.07C152.07 24.1484 151.035 22.9766 149.434 22.9766C147.764 22.9766 146.68 24.2656 146.602 25.7695ZM171.582 30.0078V31.5703H155.566V30.0078H162.617V26.9414H157.52V21.375H167.793V18.9141H157.48V17.3906H169.629V22.8594H159.355V25.418H170.039V26.9414H164.453V30.0078H171.582ZM193.75 30.0078V31.5703H177.734V30.0078H184.785V26.9414H179.688V21.375H189.961V18.9141H179.648V17.3906H191.797V22.8594H181.523V25.418H192.207V26.9414H186.621V30.0078H193.75ZM208.887 17.9375V19.8125C208.887 22.0781 208.887 24.5391 208.242 28.2695L206.348 28.0938C207.051 24.5977 207.051 22.0195 207.051 19.8125V19.4609H196.738V17.9375H208.887ZM210.977 29.6367V31.1797H195.02V29.6367H210.977ZM226.816 16.1797V28.8945H224.961V16.1797H226.816ZM227.344 31.7852V33.2891H215.371V27.6055H217.246V31.7852H227.344ZM217.324 17.3516C219.961 17.3516 221.973 19.1484 221.973 21.6875C221.973 24.2656 219.961 26.043 217.324 26.043C214.688 26.043 212.656 24.2656 212.656 21.6875C212.656 19.1484 214.688 17.3516 217.324 17.3516ZM217.324 18.9727C215.684 18.9727 214.473 20.0859 214.473 21.6875C214.473 23.3281 215.684 24.4219 217.324 24.4219C218.926 24.4219 220.156 23.3281 220.156 21.6875C220.156 20.0859 218.926 18.9727 217.324 18.9727Z" fill="black"/>
</svg>
