<svg width="52" height="44" viewBox="0 0 52 44" fill="none" xmlns="http://www.w3.org/2000/svg">
<g filter="url(#filter0_d_1082_582)">
<rect x="4" width="44" height="44" rx="5" fill="white"/>
<path d="M35.5379 29.6378C37.444 26.6688 36.5487 22.7243 33.5018 20.8581C32.0409 19.9646 30.2784 19.6727 28.5986 20.0462C26.9188 20.4196 25.4579 21.428 24.5343 22.8516C22.6282 25.8347 23.5523 29.7934 26.5704 31.6313C28.6931 32.932 31.3791 32.932 33.5018 31.6313L37.9928 36L40 34.0348L35.5379 29.6378ZM32.6498 28.7613C31.2347 30.1468 28.9531 30.1327 27.5379 28.7613C26.1372 27.3757 26.1372 25.1419 27.5523 23.7564C28.9531 22.385 31.2347 22.385 32.6498 23.7564C34.0361 25.1561 34.0217 27.3899 32.6065 28.7613H32.6498ZM35.1047 10H14.8881C14.1221 10 13.3875 10.2979 12.8459 10.8282C12.3043 11.3585 12 12.0777 12 12.8276V29.7934C12 30.5433 12.3043 31.2625 12.8459 31.7928C13.3875 32.3231 14.1221 32.621 14.8881 32.621H23.278C22.4688 31.8053 21.8267 30.8455 21.3863 29.7934H14.8881V24.1381H20.9242C21.1552 23.1343 21.5451 22.1729 22.1083 21.3105H14.8881V15.6552H23.5523V19.6281C24.3855 18.8359 25.3658 18.2072 26.4404 17.776V15.6552H35.1047V18.4829C36.2677 19.2064 37.2537 20.1718 37.9928 21.3105V12.8276C37.9928 12.0777 37.6885 11.3585 37.1469 10.8282C36.6053 10.2979 35.8707 10 35.1047 10Z" fill="black"/>
</g>
<defs>
<filter id="filter0_d_1082_582" x="0.5" y="-3.5" width="51" height="51" filterUnits="userSpaceOnUse" color-interpolation-filters="sRGB">
<feFlood flood-opacity="0" result="BackgroundImageFix"/>
<feColorMatrix in="SourceAlpha" type="matrix" values="0 0 0 0 0 0 0 0 0 0 0 0 0 0 0 0 0 0 127 0" result="hardAlpha"/>
<feOffset/>
<feGaussianBlur stdDeviation="1.75"/>
<feComposite in2="hardAlpha" operator="out"/>
<feColorMatrix type="matrix" values="0 0 0 0 0 0 0 0 0 0 0 0 0 0 0 0 0 0 0.07 0"/>
<feBlend mode="normal" in2="BackgroundImageFix" result="effect1_dropShadow_1082_582"/>
<feBlend mode="normal" in="SourceGraphic" in2="effect1_dropShadow_1082_582" result="shape"/>
</filter>
</defs>
</svg>
