<svg width="18" height="18" viewBox="0 0 18 18" fill="none" xmlns="http://www.w3.org/2000/svg">
<path d="M3.46541 3.38625C3.60191 2.84025 3.67016 2.568 3.87341 2.409C4.07741 2.25 4.35866 2.25 4.92116 2.25H13.0782C13.6407 2.25 13.9219 2.25 14.1259 2.409C14.3284 2.568 14.3974 2.84025 14.5339 3.38625L15.4362 6.99675C15.5089 7.28775 15.5457 7.4325 15.5374 7.551C15.5272 7.70044 15.4724 7.84339 15.3801 7.96142C15.2879 8.07946 15.1624 8.16717 15.0199 8.21325C14.9074 8.25 14.7544 8.25 14.4477 8.25C14.0479 8.25 13.8477 8.25 13.6804 8.211C13.4485 8.15699 13.2328 8.04855 13.0512 7.89466C12.8695 7.74077 12.7271 7.54584 12.6357 7.326C12.5689 7.167 12.5367 6.9735 12.4729 6.58875C12.4549 6.48075 12.4459 6.42675 12.4354 6.4125C12.4285 6.4029 12.4193 6.39508 12.4088 6.38969C12.3982 6.38429 12.3865 6.38148 12.3747 6.38148C12.3628 6.38148 12.3511 6.38429 12.3406 6.38969C12.33 6.39508 12.3209 6.4029 12.3139 6.4125C12.3034 6.42675 12.2944 6.48 12.2764 6.58875L12.2157 6.9555L12.2022 7.0305C12.1381 7.36766 11.9603 7.67265 11.6985 7.89459C11.4367 8.11652 11.1068 8.24196 10.7637 8.25H10.6107C10.2543 8.24194 9.91245 8.10724 9.64638 7.87003C9.3803 7.63282 9.20741 7.30861 9.15866 6.9555L9.09791 6.588C9.07991 6.48075 9.07091 6.42675 9.06041 6.4125C9.05346 6.4029 9.04433 6.39508 9.03377 6.38969C9.02321 6.38429 9.01152 6.38148 8.99966 6.38148C8.9878 6.38148 8.97612 6.38429 8.96556 6.38969C8.955 6.39508 8.94586 6.4029 8.93891 6.4125C8.92841 6.42675 8.91941 6.48 8.90141 6.58875L8.84066 6.9555L8.82716 7.0305C8.76308 7.36766 8.58531 7.67265 8.32353 7.89459C8.06174 8.11652 7.73177 8.24196 7.38866 8.25H7.23566C6.89256 8.24196 6.56258 8.11652 6.3008 7.89459C6.03901 7.67265 5.86125 7.36766 5.79716 7.0305L5.78366 6.9555L5.72291 6.588C5.70491 6.48075 5.69591 6.42675 5.68541 6.4125C5.67846 6.4029 5.66933 6.39508 5.65877 6.38969C5.64821 6.38429 5.63652 6.38148 5.62466 6.38148C5.6128 6.38148 5.60112 6.38429 5.59056 6.38969C5.58 6.39508 5.57087 6.4029 5.56391 6.4125C5.55341 6.42675 5.54441 6.48 5.52641 6.58875C5.46266 6.97425 5.43041 7.16625 5.36366 7.326C5.27233 7.54575 5.13001 7.74062 4.94848 7.89451C4.76695 8.0484 4.55141 8.15688 4.31966 8.211C4.15166 8.25 3.95216 8.25 3.55166 8.25C3.24491 8.25 3.09191 8.25 2.97941 8.21325C2.83688 8.16717 2.71142 8.07946 2.61918 7.96142C2.52695 7.84339 2.47217 7.70044 2.46191 7.551C2.45441 7.4325 2.49041 7.28775 2.56316 6.99675L3.46541 3.38625Z" fill="#FE6285"/>
<path fill-rule="evenodd" clip-rule="evenodd" d="M3.76275 9.45201C3.75 9.69788 3.75 9.98637 3.75 10.328V13.832C3.75 14.3827 3.75 14.6578 3.96975 14.8289C4.1895 15 4.54275 15 5.25 15H7.5V12.664C7.5 12.5091 7.57902 12.3606 7.71967 12.2511C7.86032 12.1415 8.05109 12.08 8.25 12.08H9.75C9.94891 12.08 10.1397 12.1415 10.2803 12.2511C10.421 12.3606 10.5 12.5091 10.5 12.664V15H12.75C13.4572 15 13.8105 15 14.0303 14.8289C14.25 14.6578 14.25 14.3827 14.25 13.832V10.328C14.25 9.98637 14.25 9.69788 14.2372 9.45201C13.9635 9.45201 13.6838 9.44559 13.425 9.39887C13.041 9.32919 12.6821 9.19306 12.375 9.00058C11.937 9.27506 11.385 9.44092 10.7902 9.45143L10.6957 9.45201H10.5848C10.007 9.44129 9.44995 9.2824 9 9C8.562 9.27448 8.01 9.44034 7.41525 9.45085L7.32075 9.45143H7.20975C6.63209 9.44087 6.07504 9.28219 5.625 9C5.322 9.1898 4.965 9.32704 4.575 9.39829C4.31625 9.44501 4.0365 9.45085 3.76275 9.45143" fill="#FE6285"/>
</svg>
