<svg width="24" height="24" viewBox="0 0 24 24" fill="none" xmlns="http://www.w3.org/2000/svg">
<rect width="24" height="24" fill="white"/>
<g clip-path="url(#clip0_295_648)">
<path d="M21 5.8125C21 6.44531 20.4973 7.02891 19.65 7.5C18.627 8.06602 17.1012 8.4668 15.3504 8.58633C15.2203 8.52305 15.0902 8.46328 14.9531 8.41055C13.568 7.83047 11.7258 7.5 9.75 7.5C9.4582 7.5 9.17344 7.50703 8.88867 7.52109L8.85 7.5C8.00273 7.02891 7.5 6.44531 7.5 5.8125C7.5 4.25859 10.5234 3 14.25 3C17.9766 3 21 4.25859 21 5.8125ZM8.64961 8.66367C9.0082 8.63906 9.37734 8.625 9.75 8.625C11.9367 8.625 13.8773 9.05742 15.1113 9.72891C15.9832 10.2035 16.5 10.7941 16.5 11.4375C16.5 11.5781 16.4754 11.7152 16.4262 11.8488C16.2645 12.3129 15.8285 12.7383 15.1957 13.0969C15.1922 13.1004 15.1852 13.1004 15.1816 13.1039C15.1711 13.1109 15.1605 13.1145 15.15 13.1215C13.9195 13.8035 11.9578 14.2465 9.75 14.2465C7.65469 14.2465 5.78086 13.8492 4.53984 13.2234C4.47305 13.1918 4.40977 13.1566 4.34648 13.1215C3.50273 12.6539 3 12.0703 3 11.4375C3 10.2141 4.87734 9.16992 7.5 8.78672C7.86914 8.73398 8.25234 8.6918 8.64961 8.66367ZM17.625 11.4375C17.625 10.6676 17.2523 10.0348 16.7777 9.56016C17.7727 9.40547 18.6832 9.15938 19.4566 8.83945C20.0297 8.60039 20.5641 8.30508 21 7.94297V9.1875C21 9.86602 20.4199 10.4918 19.4602 10.977C18.9469 11.2371 18.3211 11.4586 17.618 11.6273C17.6215 11.5641 17.625 11.5043 17.625 11.441V11.4375ZM16.5 14.8125C16.5 15.4453 15.9973 16.0289 15.15 16.5C15.0867 16.5352 15.0234 16.5668 14.9566 16.602C13.7191 17.2277 11.8453 17.625 9.75 17.625C7.54219 17.625 5.58047 17.182 4.35 16.5C3.50273 16.0289 3 15.4453 3 14.8125V13.568C3.43945 13.9301 3.97031 14.2254 4.54336 14.4645C5.93203 15.0445 7.77422 15.375 9.75 15.375C11.7258 15.375 13.568 15.0445 14.9566 14.4645C15.2309 14.352 15.4945 14.2219 15.7441 14.0813C15.9586 13.9617 16.159 13.8281 16.3488 13.6875C16.4016 13.6488 16.4508 13.6066 16.5 13.568V13.6875V13.8879V14.8125ZM17.625 14.8125V13.6875V12.777C18.293 12.6293 18.9082 12.443 19.4566 12.2145C20.0297 11.9754 20.5641 11.6801 21 11.318V12.5625C21 12.9316 20.8242 13.3008 20.4762 13.6488C19.9031 14.2219 18.8941 14.693 17.618 14.9988C17.6215 14.9391 17.625 14.8758 17.625 14.8125ZM9.75 18.75C11.7258 18.75 13.568 18.4195 14.9566 17.8395C15.5297 17.6004 16.0641 17.3051 16.5 16.943V18.1875C16.5 19.7414 13.4766 21 9.75 21C6.02344 21 3 19.7414 3 18.1875V16.943C3.43945 17.3051 3.97031 17.6004 4.54336 17.8395C5.93203 18.4195 7.77422 18.75 9.75 18.75Z" fill="#4A4A4A"/>
</g>
<defs>
<clipPath id="clip0_295_648">
<path d="M3 3H21V21H3V3Z" fill="white"/>
</clipPath>
</defs>
</svg>
