<svg width="44" height="44" viewBox="0 0 44 44" fill="none" xmlns="http://www.w3.org/2000/svg">
<rect width="44" height="44" fill="white"/>
<path d="M13.6 22C17.6622 22 20.95 18.6451 20.95 14.5C20.95 10.3549 17.6622 7 13.6 7C9.53781 7 6.25 10.3549 6.25 14.5C6.25 18.6451 9.53781 22 13.6 22ZM18.64 24.1429H18.0953C16.7303 24.8125 15.2144 25.2143 13.6 25.2143C11.9856 25.2143 10.4762 24.8125 9.10469 24.1429H8.56C4.38625 24.1429 1 27.5982 1 31.8571V33.7857C1 35.5603 2.41094 37 4.15 37H23.05C24.7891 37 26.2 35.5603 26.2 33.7857V31.8571C26.2 27.5982 22.8137 24.1429 18.64 24.1429ZM32.5 22C35.9781 22 38.8 19.1205 38.8 15.5714C38.8 12.0223 35.9781 9.14286 32.5 9.14286C29.0219 9.14286 26.2 12.0223 26.2 15.5714C26.2 19.1205 29.0219 22 32.5 22ZM35.65 24.1429H35.4006C34.4884 24.4643 33.5238 24.6786 32.5 24.6786C31.4762 24.6786 30.5116 24.4643 29.5994 24.1429H29.35C28.0112 24.1429 26.7775 24.5379 25.6947 25.1741C27.2959 26.9353 28.3 29.2723 28.3 31.8571V34.4286C28.3 34.5759 28.2672 34.7165 28.2606 34.8571H39.85C41.5891 34.8571 43 33.4174 43 31.6429C43 27.4978 39.7122 24.1429 35.65 24.1429Z" fill="#7A7A7A"/>
</svg>
