<svg width="34" height="34" viewBox="0 0 34 34" xmlns="http://www.w3.org/2000/svg">
<rect width="34" height="34" fill="white"/>
<path fill="currentColor" d="M10.5098 17.0001C13.6488 17.0001 16.1893 14.4077 16.1893 11.2046C16.1893 8.00161 13.6488 5.40918 10.5098 5.40918C7.37084 5.40918 4.83026 8.00161 4.83026 11.2046C4.83026 14.4077 7.37084 17.0001 10.5098 17.0001ZM14.4043 18.6559H13.9835C12.9287 19.1734 11.7573 19.4839 10.5098 19.4839C9.26233 19.4839 8.09599 19.1734 7.03615 18.6559H6.61525C3.39008 18.6559 0.773438 21.326 0.773438 24.617V26.1072C0.773438 27.4785 1.86371 28.591 3.20753 28.591H17.8121C19.1559 28.591 20.2462 27.4785 20.2462 26.1072V24.617C20.2462 21.326 17.6295 18.6559 14.4043 18.6559ZM25.1143 17.0001C27.802 17.0001 29.9825 14.775 29.9825 12.0326C29.9825 9.29006 27.802 7.06502 25.1143 7.06502C22.4267 7.06502 20.2462 9.29006 20.2462 12.0326C20.2462 14.775 22.4267 17.0001 25.1143 17.0001ZM27.5484 18.6559H27.3557C26.6509 18.9043 25.9054 19.0699 25.1143 19.0699C24.3233 19.0699 23.5778 18.9043 22.873 18.6559H22.6803C21.6458 18.6559 20.6924 18.9612 19.8557 19.4528C21.093 20.8137 21.8689 22.6196 21.8689 24.617V26.604C21.8689 26.7178 21.8435 26.8265 21.8385 26.9352H30.7939C32.1377 26.9352 33.228 25.8226 33.228 24.4514C33.228 21.2484 30.6874 18.6559 27.5484 18.6559Z"/>
</svg>