<svg width="28" height="28" viewBox="0 0 28 28" fill="none" xmlns="http://www.w3.org/2000/svg">
<path d="M7.00065 16.0413C8.12823 16.0413 9.04232 15.1273 9.04232 13.9997C9.04232 12.8721 8.12823 11.958 7.00065 11.958C5.87307 11.958 4.95898 12.8721 4.95898 13.9997C4.95898 15.1273 5.87307 16.0413 7.00065 16.0413Z" fill="#4A4A4A"/>
<path d="M14.0007 16.0413C15.1282 16.0413 16.0423 15.1273 16.0423 13.9997C16.0423 12.8721 15.1282 11.958 14.0007 11.958C12.8731 11.958 11.959 12.8721 11.959 13.9997C11.959 15.1273 12.8731 16.0413 14.0007 16.0413Z" fill="#4A4A4A"/>
<path d="M21.0007 16.0413C22.1282 16.0413 23.0423 15.1273 23.0423 13.9997C23.0423 12.8721 22.1282 11.958 21.0007 11.958C19.8731 11.958 18.959 12.8721 18.959 13.9997C18.959 15.1273 19.8731 16.0413 21.0007 16.0413Z" fill="#4A4A4A"/>
</svg>
