<svg width="15" height="15" viewBox="0 0 15 15" fill="none" xmlns="http://www.w3.org/2000/svg">
<path d="M5.7515 9.12479L10.8558 4.02053C10.9762 3.90007 11.1167 3.83984 11.2774 3.83984C11.438 3.83984 11.5785 3.90007 11.6989 4.02053C11.8194 4.14098 11.8796 4.28412 11.8796 4.44995C11.8796 4.61577 11.8194 4.75871 11.6989 4.87876L6.17309 10.4197C6.05264 10.5401 5.91211 10.6004 5.7515 10.6004C5.5909 10.6004 5.45037 10.5401 5.32991 10.4197L2.74014 7.8299C2.61968 7.70945 2.56187 7.56651 2.56668 7.40108C2.5715 7.23566 2.63434 7.09252 2.7552 6.97166C2.87605 6.85081 3.01919 6.79058 3.18462 6.79098C3.35004 6.79138 3.49298 6.85161 3.61343 6.97166L5.7515 9.12479Z" fill="#F76F8E"/>
</svg>
