<svg width="24" height="24" viewBox="0 0 24 24" fill="none" xmlns="http://www.w3.org/2000/svg">
<rect width="24" height="24" fill="white"/>
<path d="M7.3 12.5C9.33109 12.5 10.975 10.8225 10.975 8.75C10.975 6.67746 9.33109 5 7.3 5C5.26891 5 3.625 6.67746 3.625 8.75C3.625 10.8225 5.26891 12.5 7.3 12.5ZM9.82 13.5714H9.54766C8.86516 13.9062 8.10719 14.1071 7.3 14.1071C6.49281 14.1071 5.73813 13.9062 5.05234 13.5714H4.78C2.69313 13.5714 1 15.2991 1 17.4286V18.3929C1 19.2801 1.70547 20 2.575 20H12.025C12.8945 20 13.6 19.2801 13.6 18.3929V17.4286C13.6 15.2991 11.9069 13.5714 9.82 13.5714ZM16.75 12.5C18.4891 12.5 19.9 11.0603 19.9 9.28571C19.9 7.51116 18.4891 6.07143 16.75 6.07143C15.0109 6.07143 13.6 7.51116 13.6 9.28571C13.6 11.0603 15.0109 12.5 16.75 12.5ZM18.325 13.5714H18.2003C17.7442 13.7321 17.2619 13.8393 16.75 13.8393C16.2381 13.8393 15.7558 13.7321 15.2997 13.5714H15.175C14.5056 13.5714 13.8888 13.769 13.3473 14.0871C14.148 14.9676 14.65 16.1362 14.65 17.4286V18.7143C14.65 18.7879 14.6336 18.8583 14.6303 18.9286H20.425C21.2945 18.9286 22 18.2087 22 17.3214C22 15.2489 20.3561 13.5714 18.325 13.5714Z" fill="#4A4A4A"/>
</svg>
