<svg width="34" height="34" viewBox="0 0 34 34" fill="none" xmlns="http://www.w3.org/2000/svg">
<path d="M25.5 19.8333V15.5833H21.25V12.75H25.5V8.5H28.3333V12.75H32.5833V15.5833H28.3333V19.8333H25.5ZM12.75 17C11.1917 17 9.85763 16.4451 8.74791 15.3354C7.63818 14.2257 7.08332 12.8917 7.08332 11.3333C7.08332 9.775 7.63818 8.44097 8.74791 7.33125C9.85763 6.22153 11.1917 5.66666 12.75 5.66666C14.3083 5.66666 15.6424 6.22153 16.7521 7.33125C17.8618 8.44097 18.4167 9.775 18.4167 11.3333C18.4167 12.8917 17.8618 14.2257 16.7521 15.3354C15.6424 16.4451 14.3083 17 12.75 17ZM1.41666 28.3333V24.3667C1.41666 23.5639 1.62349 22.8263 2.03716 22.1538C2.45082 21.4814 2.99955 20.9676 3.68332 20.6125C5.14721 19.8806 6.63471 19.3318 8.14582 18.9663C9.65693 18.6008 11.1917 18.4176 12.75 18.4167C14.3083 18.4157 15.843 18.5989 17.3542 18.9663C18.8653 19.3337 20.3528 19.8824 21.8167 20.6125C22.5014 20.9667 23.0506 21.4804 23.4642 22.1538C23.8779 22.8272 24.0843 23.5648 24.0833 24.3667V28.3333H1.41666Z" fill="#F76F8E"/>
</svg>
